#!OML:ASF F:\VICON\USERDATA\INSTALL\rory3\rory3.ASF
:FULLY-SPECIFIED
:DEGREES
2509
root -1.79132 17.3357 -3.90272 -171.012 111.237 -175.93
lowerback 5.26466 -5.04117 -7.37961
upperback 0.846107 -7.08641 1.49193
thorax -0.976453 -3.52893 6.02547
lowerneck -10.0304 -13.3304 -16.3715
upperneck 24.4043 -17.3605 7.84448
head 11.821 -8.52764 2.95662
rclavicle 4.52608e-014 9.44227e-015
rhumerus -17.3011 -21.8713 -65.3799
rradius 54.5606
rwrist 4.26345
rhand -36.6786 -4.42492
rfingers 7.12502
rthumb -9.76458 -34.1785
lclavicle 4.52608e-014 9.44227e-015
lhumerus -32.0861 -23.1856 89.6294
lradius 53.5812
lwrist -9.36973
lhand -9.02967 32.3707
lfingers 7.12502
lthumb 16.9179 1141.65
rfemur -36.6126 9.39044 15.9184
rtibia 28.4192
rfoot 3.59162 8.7519
rtoes -6.31477
lfemur -2.55966 2.09432 -27.9405
ltibia 25.3782
lfoot -23.4768 1.59264
ltoes 2.96049
2510
root -1.85055 17.3411 -3.93174 -170.932 111.366 -175.702
lowerback 5.25947 -5.25934 -7.46734
upperback 0.747857 -7.38698 1.41709
thorax -1.02797 -3.67378 6.00774
lowerneck -9.68116 -13.1163 -16.1252
upperneck 24.4512 -17.1556 7.82341
head 11.7133 -8.43003 2.97819
rclavicle -8.52289e-015 -6.16232e-015
rhumerus -17.5391 -22.4463 -65.465
rradius 55.5628
rwrist 3.69106
rhand -37.2007 -4.53999
rfingers 7.12502
rthumb -10.2683 -34.2693
lclavicle -8.52289e-015 -6.16232e-015
lhumerus -31.3704 -24.622 89.5471
lradius 53.4301
lwrist -10.0164
lhand -8.5326 31.8259
lfingers 7.12502
lthumb 17.3963 1141.07
rfemur -36.3825 9.01617 15.8517
rtibia 27.883
rfoot 3.17859 8.61301
rtoes -6.74716
lfemur -2.81495 2.08367 -28.0537
ltibia 25.6513
lfoot -23.3692 1.4246
ltoes 3.54812
2511
root -1.90159 17.3481 -3.9554 -170.958 111.612 -175.517
lowerback 5.23858 -5.56339 -7.58527
upperback 0.537076 -7.81048 1.14103
thorax -1.19351 -3.87023 5.80666
lowerneck -8.74147 -12.6271 -15.2412
upperneck 24.36 -16.7049 7.63528
head 11.3209 -8.20645 2.93509
rclavicle 1.01281e-013 6.36111e-015
rhumerus -18.1186 -22.7559 -65.9482
rradius 56.537
rwrist 3.1182
rhand -37.7396 -4.98235
rfingers 7.12502
rthumb -10.7881 -34.6853
lclavicle 1.01281e-013 6.36111e-015
lhumerus -31.2211 -25.8489 89.094
lradius 53.4843
lwrist -10.651
lhand -8.48978 30.8798
lfingers 7.12502
lthumb 17.4375 1140.12
rfemur -35.9819 8.87136 15.7621
rtibia 27.2604
rfoot 2.77674 8.50141
rtoes -6.19079
lfemur -2.94634 2.36088 -28.104
ltibia 25.9271
lfoot -23.392 0.954839
ltoes 4.62986
2512
root -1.95263 17.361 -3.98252 -170.957 111.692 -175.286
lowerback 4.99939 -5.41259 -7.52354
upperback 0.882927 -7.5691 1.41066
thorax -0.707393 -3.78304 5.99536
lowerneck -9.58798 -13.0115 -16.2923
upperneck 24.542 -16.9854 7.79522
head 11.7221 -8.37392 3.02891
rclavicle 8.15266e-014 -1.92821e-014
rhumerus -17.7658 -24.1352 -64.99
rradius 57.4521
rwrist 2.15561
rhand -38.1365 -5.66021
rfingers 7.12502
rthumb -11.1709 -35.3428
lclavicle 8.15266e-014 -1.92821e-014
lhumerus -29.4237 -27.7899 89.5945
lradius 53.4073
lwrist -11.4067
lhand -8.1828 29.834
lfingers 7.12502
lthumb 17.7329 1139.05
rfemur -35.4738 8.49848 15.6913
rtibia 26.5822
rfoot 2.3623 8.43681
rtoes -4.76758
lfemur -3.02396 2.32202 -28.1378
ltibia 26.1963
lfoot -23.387 0.260315
ltoes 7.35879
2513
root -2.0052 17.3741 -4.01623 -171.235 111.628 -175.377
lowerback 4.92304 -5.41041 -7.32421
upperback 1.03824 -7.54232 1.54433
thorax -0.514684 -3.78332 6.00476
lowerneck -9.99578 -13.1863 -16.5942
upperneck 24.6756 -17.1023 7.72618
head 11.8963 -8.44357 2.99458
rclavicle -4.1956e-014 -2.80783e-014
rhumerus -17.782 -25.1894 -64.3984
rradius 58.3013
rwrist 1.16388
rhand -38.6788 -6.36488
rfingers 7.12502
rthumb -11.694 -36.0185
lclavicle -4.1956e-014 -2.80783e-014
lhumerus -28.2459 -29.6197 89.679
lradius 53.6928
lwrist -12.0627
lhand -7.90811 29.0766
lfingers 7.12502
lthumb 17.9973 1138.26
rfemur -34.9868 8.02202 15.7527
rtibia 25.9525
rfoot 1.79849 8.25223
rtoes -4.08096
lfemur -3.10899 1.96531 -28.0832
ltibia 26.4171
lfoot -23.2966 -0.300451
ltoes 10.4198
2514
root -2.05901 17.3819 -4.04925 -171.348 111.461 -175.232
lowerback 5.01825 -5.52112 -7.29579
upperback 1.06656 -7.69327 1.61506
thorax -0.508316 -3.86046 6.07292
lowerneck -10.0081 -13.1647 -16.6146
upperneck 24.6989 -17.0364 7.61935
head 11.89 -8.42642 2.97013
rclavicle -3.39037e-014 -4.82053e-015
rhumerus -17.9136 -25.9561 -63.977
rradius 58.9973
rwrist 0.376561
rhand -39.312 -7.00549
rfingers 7.12502
rthumb -12.3045 -36.6235
lclavicle -3.39037e-014 -4.82053e-015
lhumerus -27.2637 -31.1443 89.6007
lradius 54.0108
lwrist -12.6049
lhand -7.81411 28.3808
lfingers 7.12502
lthumb 18.0877 1137.56
rfemur -34.4461 7.39576 15.7711
rtibia 25.3886
rfoot 0.967991 7.92956
rtoes -4.13965
lfemur -3.12184 1.79721 -28.1454
ltibia 26.5743
lfoot -23.1595 -0.403488
ltoes 10.7447
2515
root -2.10772 17.3839 -4.07808 -171.152 111.265 -174.803
lowerback 4.97619 -5.66346 -7.31793
upperback 1.11445 -7.8791 1.61192
thorax -0.403206 -3.95938 6.07485
lowerneck -10.1558 -13.1122 -16.5123
upperneck 24.8083 -16.9177 7.44744
head 11.9166 -8.37714 2.90609
rclavicle -5.2153e-014 9.91439e-015
rhumerus -18.0417 -26.7758 -63.6609
rradius 59.6653
rwrist -0.309085
rhand -39.876 -7.34541
rfingers 7.12502
rthumb -12.8482 -36.93
lclavicle -5.2153e-014 9.91439e-015
lhumerus -26.1647 -32.6088 89.3196
lradius 54.4015
lwrist -13.1153
lhand -7.7472 27.8252
lfingers 7.12502
lthumb 18.1521 1137
rfemur -33.9439 6.50027 15.7589
rtibia 24.8596
rfoot 0.150251 7.52308
rtoes -3.85954
lfemur -3.11923 1.72929 -28.3304
ltibia 26.6699
lfoot -23.0321 -0.313015
ltoes 9.80203
2516
root -2.15636 17.3847 -4.10799 -171.21 111.12 -174.684
lowerback 4.89059 -5.76473 -7.21035
upperback 1.15484 -8.00103 1.60955
thorax -0.309594 -4.02526 6.00127
lowerneck -10.246 -13.0756 -16.3436
upperneck 24.8815 -16.8319 7.23896
head 11.9118 -8.34302 2.81711
rclavicle -7.82839e-014 -5.29264e-015
rhumerus -18.2188 -27.624 -63.3701
rradius 60.2948
rwrist -0.785564
rhand -40.3743 -7.76665
rfingers 7.12502
rthumb -13.3286 -37.3204
lclavicle -7.82839e-014 -5.29264e-015
lhumerus -25.0619 -34.0826 88.9491
lradius 54.8608
lwrist -13.343
lhand -8.0646 27.1987
lfingers 7.12502
lthumb 17.8467 1136.4
rfemur -33.5343 5.89113 15.7489
rtibia 24.3644
rfoot -0.814483 6.77864
rtoes -2.71308
lfemur -3.14355 1.56712 -28.433
ltibia 26.6807
lfoot -22.8264 -0.100043
ltoes 9.0764
2517
root -2.20671 17.3912 -4.13535 -171.954 111.022 -175.279
lowerback 4.86702 -5.79318 -6.98588
upperback 1.17676 -8.02441 1.74062
thorax -0.281969 -4.03938 6.01014
lowerneck -10.2362 -13.0392 -16.2774
upperneck 24.9031 -16.7464 7.0677
head 11.8827 -8.31726 2.76253
rclavicle -1.12127e-014 2.1916e-014
rhumerus -18.3181 -28.2819 -62.9245
rradius 60.685
rwrist -1.32002
rhand -41.1447 -8.28092
rfingers 7.12502
rthumb -14.0711 -37.7846
lclavicle -1.12127e-014 2.1916e-014
lhumerus -23.9094 -35.5387 88.6237
lradius 55.2461
lwrist -13.3106
lhand -8.48977 26.5713
lfingers 7.12502
lthumb 17.4375 1135.81
rfemur -33.1325 5.48715 15.985
rtibia 23.8432
rfoot -1.93818 5.99336
rtoes -2.63841
lfemur -3.1644 1.59409 -28.2079
ltibia 26.6141
lfoot -22.5659 -0.119476
ltoes 8.85624
2518
root -2.25786 17.4045 -4.15662 -172.705 111.002 -175.95
lowerback 4.78915 -5.80259 -6.88356
upperback 1.17366 -8.0254 1.95521
thorax -0.224388 -4.04416 6.16699
lowerneck -10.3344 -12.9745 -16.304
upperneck 24.9588 -16.5864 6.8989
head 11.8887 -8.26232 2.72845
rclavicle 2.24999e-014 2.78299e-015
rhumerus -18.3122 -29.1144 -62.5188
rradius 61.0984
rwrist -1.97763
rhand -41.4768 -8.43484
rfingers 7.12502
rthumb -14.3911 -37.916
lclavicle 2.24999e-014 2.78299e-015
lhumerus -22.6122 -36.7398 88.2237
lradius 55.5761
lwrist -13.4725
lhand -8.60467 26.0825
lfingers 7.12502
lthumb 17.3269 1135.33
rfemur -32.7407 5.11584 16.2763
rtibia 23.2075
rfoot -3.07067 5.27502
rtoes -3.46664
lfemur -3.22114 1.79551 -27.8972
ltibia 26.5279
lfoot -22.2948 -0.422809
ltoes 9.11239
2519
root -2.31105 17.4192 -4.17662 -173.053 111.092 -176.172
lowerback 4.74427 -5.77847 -6.86475
upperback 1.1584 -7.98952 2.03608
thorax -0.211691 -4.02717 6.23598
lowerneck -10.5585 -12.9113 -16.2537
upperneck 25.2051 -16.4307 6.70781
head 11.9843 -8.20043 2.6651
rclavicle 7.51655e-014 -2.41523e-014
rhumerus -18.3989 -30.2952 -62.36
rradius 61.7101
rwrist -2.5583
rhand -41.7038 -8.61576
rfingers 7.12502
rthumb -14.6098 -38.0812
lclavicle 7.51655e-014 -2.41523e-014
lhumerus -21.287 -37.864 87.6304
lradius 55.9143
lwrist -13.5886
lhand -8.87296 25.9332
lfingers 7.12502
lthumb 17.0687 1135.2
rfemur -32.3106 5.11577 16.2782
rtibia 22.5496
rfoot -4.36686 4.14506
rtoes -5.02098
lfemur -3.22698 1.86321 -27.8085
ltibia 26.411
lfoot -22.0424 -0.501457
ltoes 9.08537
2520
root -2.36605 17.4361 -4.19872 -173.409 111.135 -176.395
lowerback 4.76145 -5.73294 -6.76623
upperback 1.14109 -7.92569 2.04355
thorax -0.261808 -3.99235 6.193
lowerneck -10.7091 -12.8254 -16.0771
upperneck 25.3638 -16.2911 6.56913
head 12.0255 -8.13207 2.60609
rclavicle -1.29459e-014 1.46107e-014
rhumerus -18.4068 -31.2844 -62.3049
rradius 62.1143
rwrist -3.26152
rhand -42.6789 -9.35742
rfingers 7.12502
rthumb -15.5491 -38.7523
lclavicle -1.29459e-014 1.46107e-014
lhumerus -19.9227 -39.0331 86.8887
lradius 56.2692
lwrist -13.5628
lhand -9.21368 25.986
lfingers 7.12502
lthumb 16.7407 1135.28
rfemur -31.9151 5.31507 16.1765
rtibia 22.0023
rfoot -5.82686 2.76831
rtoes -5.95801
lfemur -3.22365 2.03452 -27.6879
ltibia 26.2302
lfoot -21.7941 -0.695614
ltoes 8.8256
